<svg xmlns="http://www.w3.org/2000/svg" viewBox="0 0 800 800" xml:space="preserve"><path style="fill:#fff" d="M0 0h800v800H0z"/><path style="fill:none;stroke:#393d49;stroke-width:6;stroke-linejoin:round;stroke-miterlimit:10" d="M580.407 324.504c-14.987-14.555-30.673-26.909-48.323-38.049l-8.297 13.623c20.094 5.344 38.638 14.144 56.62 24.426zm-363.323 2.595c14.498-14.514 29.809-27.596 47.277-38.472l8.52 13.487c-19.869 5.758-38.04 14.521-55.797 24.985z"/><path style="fill:none;stroke:#393d49;stroke-width:6;stroke-linejoin:round;stroke-miterlimit:10" d="m523.924 300.292 34.572-56.647c61.148 38.475 102.93 92.853 127.801 160.455-14.89-9.913-29.998-18.669-46.554-25.561-3.976 16.113-9.11 32.043-15.895 47.208-19.922-53.255-51.847-94.843-99.924-125.455zm-250.64 1.704-35.351-56.171c-59.387 38.622-99.795 91.995-124.23 158.276 13.896-7.908 28.509-14.796 43.721-19.791 5.491 14.291 11.609 27.885 18.728 41.438 19.585-52.16 50.464-93.006 97.132-123.752z"/><path style="fill:#fff;stroke:#393d49;stroke-width:6;stroke-linejoin:round;stroke-miterlimit:10" d="M581.71 324.201c-102.519-99.397-264.879-98.33-365.933 2.615l-47.928-45.925c126.16-127.387 333.119-128.752 461.135-3.296z"/><path style="fill:#fff" d="M591.42 586.101c-3.861-7.581-7.432-14.228-10.887-20.657-5.204-9.68-10.118-18.825-15.785-30.644-3.103-6.471-6.603-12.95-10.004-19.247-6.916-12.801-13.448-24.893-14.89-33.898-2.397-14.964-12.349-37.099-26.071-48.648-4.367-3.675-7.299-6.94-9.893-9.828-5.443-6.061-9.038-10.065-19.787-10.479a48 48 0 0 0-1.548-.034 176 176 0 0 1-5.673-.129c-16.826-.649-36.86-3.791-41.265-7.926-3.093-2.904-7.245-4.375-10.182-5.098l-1.465-.36-.056-1.507c-.36-9.599-2.497-16.867-6.351-21.603l-1.662-2.044.887-1.241q.897-1.259 1.767-2.504l1.213-1.726c13.838-19.558 16.932-32.752 18.135-43.078l.142-1.217 1.149-.427c3.62-1.344 4.568-6.2 6.061-15.385.453-2.791.967-5.945 1.66-9.609.897-4.741 1.25-8.812 1.069-11.812H437.82c-.196-3-.37-6.935-.521-10.401-.082-1.888-.598-3.495-1.404-4.816a61 61 0 0 0-1.186-5.994 10 10 0 0 0-.321-1.021l-.14-1.856c.701-1.046 1.097-2.397 1.015-4.064-.534-10.875-1.039-21.752-1.559-32.628.035-.335.057-.68.053-1.044-.138-12.335 2.703-25.13 2.064-37.443.001-5.502.044-9.897 0-15.398.115-.49-1.891-22.687-1.741-32.946.058-3.963 5.736-26.788 1.556-34.133-1.695-2.979-4.313-5.228-7.409-6.414a29 29 0 0 0-1.476-2.058c-3.795-4.784-8.715-8.55-14.289-11.07-12.735-5.757-25.678-7.137-39.481-4.854-2.032.336-3.975.903-5.875 1.566a130 130 0 0 0-5.107-.454c-5.7-.404-11.255.594-16.906 1.192-6.424.679-12.748 1.094-18.669 3.879-6.528 3.071-13.183 9.163-16.394 16.291-1.77.474-3.401 1.375-4.448 2.711-3.091 3.942-4.362 7.756-3.951 12.724.101 1.219.312 2.426.473 3.638.012.213.114 1.297.154 1.696.311 3.056.722 6.109 1.284 9.128.826 4.435 1.864 8.847 2.997 13.242.366 8.863.679 17.727.673 26.595a113 113 0 0 0-.107 8.488c.106 3.856 1.769 6.685 4.138 8.498.314 5.786.673 11.569 1.058 17.351a7.1 7.1 0 0 0-.482 2.423c-.167 6.438.092 12.844.362 19.274.147 3.505.097 7.93 2.71 10.625-.027.586-.051 1.173-.082 1.756-.44 8.435-1.45 16.827-1.649 25.276-.089 3.795.013 7.622-.26 11.41-.219 3.045-.683 5.833.037 8.833h-7.141c-.887 2-1.514 3.878-1.859 6.681-.422 3.427.507 5.298 1.914 8.143 1.49 3.012 3.529 7.134 5.489 15.731 1.681 7.378 3.844 11.249 6.611 11.838l1.449.307.127 1.476c.304 3.537.768 6.598 1.436 9.438l4.491 23.396-.74.748c-2.824 2.858-9.62 10.671-11.72 21.466l-.168.862-.749.46c-5.159 3.171-31.669 19.247-46.896 24.372a462 462 0 0 1-7.526 2.429c-17.656 5.593-41.836 13.253-49.154 28.366-2.382 4.918-3.331 13.238-2.99 26.184.293 11.086 1.485 23.568 2.639 35.64 1.355 14.181 2.634 27.576 1.949 34.843-1.923 20.393 20.923 73.379 29.078 90.333 8.157 16.959 14.299 35.542 17.294 52.327 1.622 9.09 27.23 17.256 48.428 22.508 22.733 5.63 51.306 10.481 70.462 11.995l.072-1.042 2.679 1.331c1.866.926 8.535 4.063 16.022 5.542 6.047 1.193 15.179 2.689 24.345 3.043 11.915.46 26.74-.961 29.695-10.337.906-2.874 3.674-6.203 6.879-10.057 5.63-6.771 12.638-15.198 14.958-26.871l3.613.008-1.986-1.34c.364-.071 36.57-7.262 47.565-22.365l.671-.922 1.136.108c2.928.28 5.677.47 8.169.566 10.903.42 18.709-.769 23.203-3.535 5.743-3.535 11.118-5.588 15.859-7.399 6.703-2.56 11.997-4.582 14.86-9.486.262-.449.551-.936.903-1.529 4.983-8.385 16.653-28.022 7.416-46.159m-177.679 40.422-.102-.004-1.248.138-.828-.892 2.522-3.054.707.265z"/><path style="fill:#fff;stroke:#393d49;stroke-width:6;stroke-miterlimit:10" d="M313.383 285.164s-7.742-5.517-9.44 8.272c-.795 6.459 3.53 6.626 7.384 23.539s9.089 9.544 9.089 9.544l-1.69-23.795z"/><path style="fill:none;stroke:#393d49;stroke-width:5;stroke-miterlimit:10" d="M437.539 278.843s12.778-6.261 7.9 19.509c-3.327 17.576-2.694 24.772-9.618 25.046"/><path style="fill:#fff;stroke:#393d49;stroke-width:6;stroke-miterlimit:10" d="M387.878 388.662c-9.99.47-27-1.01-44.683-19.264-15.016-15.502-22.593-17.455-23.893-42.021s-7-43.768-7.404-49.209c-.16-2.168 17.369-33.168 69.08-30.568 60.773 3.056 57.733 33.908 57.733 33.908s-.868 18.029-1.635 28.058c-1.239 16.194.052 30.95-19.107 58.028-6.793 9.6-13.235 20.276-30.091 21.068z"/><path style="fill:#393d49" d="m327.384 558.786.419-.453c.264-.288.607-.658 1.041-1.16a63 63 0 0 0 3.015-3.775c1.045-1.423 2.034-2.899 2.704-4.052.679-1.148 1.059-1.965 1.059-1.965s-.138.887-.481 2.203c-.333 1.318-.888 3.049-1.52 4.76a65 65 0 0 1-1.937 4.651c-.285.62-.563 1.172-.739 1.524l-.278.551zm-11.249-14.426.367-.378c.241-.252.529-.539.905-.957.744-.81 1.69-1.946 2.568-3.157a38 38 0 0 0 2.244-3.484c.565-.991.906-1.68.906-1.68s-.101.758-.32 1.896a40 40 0 0 1-1.037 4.154 40 40 0 0 1-1.515 4.084c-.23.54-.473 1.036-.608 1.328l-.226.476zm4.824 7.451.68-.595c.197-.183.524-.433.728-.667l.804-.825.93-1.136c.296-.434.636-.877.945-1.37.296-.501.635-1.004.911-1.56.301-.542.581-1.11.842-1.692.281-.572.5-1.175.749-1.758.215-.595.449-1.177.632-1.756.396-1.149.703-2.25.968-3.196l.617-2.3c.154-.556.257-.868.257-.868s-.042.326-.087.898l-.17 2.377c-.157 1.969-.417 4.621-1.073 7.253a25 25 0 0 1-.544 1.957c-.182.65-.44 1.267-.66 1.879-.236.606-.516 1.175-.758 1.729l-.814 1.51-.846 1.284c-.265.413-.467.624-.647.87l-.555.713zm125.115 14.122.792 2.836c.526 1.78 1.198 4.242 2.522 6.833 1.316 2.599 3.553 5.432 6.238 8.357 1.325 1.427 2.85 2.989 4.265 4.628a112 112 0 0 1 4.152 5.06c2.677 3.466 5.154 7.083 7.194 10.649 2.041 3.56 3.631 7.094 4.452 10.299.412 1.599.624 3.112.629 4.457a10.4 10.4 0 0 1-.563 3.414c-.339.899-.741 1.542-1.052 1.941l-.488.606.432-.643c.273-.42.611-1.087.862-1.982a10 10 0 0 0 .256-3.314c-.117-1.284-.445-2.71-.973-4.208-1.053-3.002-2.881-6.28-5.161-9.559-2.277-3.284-4.992-6.59-7.88-9.725a108 108 0 0 0-4.438-4.541c-1.497-1.458-3.019-2.764-4.58-4.175-1.523-1.4-2.971-2.813-4.286-4.264-1.315-1.448-2.488-2.958-3.439-4.463-.956-1.503-1.671-2.971-2.239-4.25-.574-1.286-.996-2.392-1.347-3.296l-1.053-2.806zm-41.32 156.117.356-.705 1.012-1.933c.885-1.652 2.172-3.99 3.837-6.735 1.672-2.741 3.699-5.902 6.238-9.102 1.273-1.596 2.683-3.202 4.372-4.682.859-.731 1.783-1.437 2.878-2.016l.713-.335.698-.36.699-.36c.193-.127.346-.258.524-.384.692-.44 1.416-1.155 2.133-1.809.651-.745 1.363-1.435 1.946-2.248l.909-1.18.831-1.23c.575-.802 1.036-1.668 1.541-2.489.488-.832.904-1.687 1.348-2.506l1.155-2.477.968-2.405.787-2.295.606-2.15.422-1.971c.192-1.246.376-2.347.365-3.256.007-.455.041-.865.023-1.218l-.088-.896-.074-.751.141.74.169.894c.05.354.054.766.087 1.228.093.924.008 2.046-.074 3.334l-.249 2.042-.42 2.242-.593 2.411-.769 2.546-.957 2.646c-.379.882-.731 1.803-1.158 2.71-.446.898-.847 1.839-1.373 2.736l-.759 1.373-.855 1.346c-.545.918-1.255 1.759-1.907 2.642-.756.825-1.441 1.671-2.455 2.463-.235.195-.479.409-.712.585l-.664.421-.663.421-.674.394c-.715.466-1.407 1.088-2.06 1.756-1.302 1.366-2.458 2.93-3.497 4.507-2.08 3.163-3.751 6.356-5.112 9.118a140 140 0 0 0-3.097 6.782l-.796 1.92-.265.667zm85.724-179.309.623-.125c.426-.093.829-.162 1.466-.351 1.226-.336 2.835-.977 4.358-1.869 1.518-.892 2.927-2.029 3.884-3.002.487-.479.867-.91 1.125-1.218l.406-.488-.26.58c-.168.37-.421.895-.772 1.504-.683 1.231-1.787 2.79-3.134 4.187-1.345 1.393-2.923 2.605-4.21 3.378-.609.388-1.28.723-1.609.895l-.567.287zm2.957 7.703.881-.016c.299.001.596-.02.923-.046a10 10 0 0 0 1.161-.12c.44-.049.91-.142 1.41-.248.504-.092 1.018-.256 1.563-.401 1.074-.334 2.2-.786 3.297-1.331a23 23 0 0 0 3.065-1.923c.45-.366.909-.706 1.298-1.076.4-.361.775-.709 1.094-1.058.336-.335.622-.663.866-.962.253-.293.469-.555.628-.783l.523-.708-.377.798c-.114.259-.276.56-.47.902-.186.348-.408.735-.679 1.14-.254.418-.564.847-.901 1.298-.327.461-.725.901-1.122 1.377a24.6 24.6 0 0 1-2.84 2.675 25 25 0 0 1-3.318 2.17c-.571.283-1.119.581-1.667.801-.543.233-1.063.446-1.557.605-.482.179-.955.317-1.39.428-.437.121-.807.215-1.065.265l-.861.187zm-289.557-83.283.744-.734c.222-.228.543-.525.926-.867.374-.347.799-.719 1.269-1.086.46-.387.985-.773 1.542-1.173.549-.41 1.168-.786 1.79-1.192a35 35 0 0 1 4.109-2.135 35 35 0 0 1 4.325-1.501c.708-.169 1.383-.355 2.038-.468a24 24 0 0 1 1.839-.302 19 19 0 0 1 1.559-.167c.464-.042.868-.071 1.202-.074l1.045-.031-1.024.202c-.326.057-.717.151-1.163.267-.447.107-.948.239-1.486.414-.542.154-1.117.36-1.72.585-.606.211-1.224.497-1.865.767a33 33 0 0 0-3.816 2.077 33 33 0 0 0-3.432 2.577c-.501.463-.999.888-1.428 1.338a23 23 0 0 0-1.195 1.268c-.368.4-.671.772-.925 1.102-.26.321-.489.611-.688.896l-.614.846zm-.567-8.791.639-1.181c.108-.191.2-.388.351-.63l.529-.8.606-.898c.224-.295.475-.578.728-.886.261-.3.508-.632.808-.935l.939-.923a10 10 0 0 1 1.037-.914c.369-.293.73-.609 1.123-.894.811-.541 1.62-1.128 2.527-1.586.868-.521 1.829-.893 2.755-1.311.97-.323 1.913-.695 2.893-.898.957-.274 1.934-.388 2.861-.535.467-.055.933-.067 1.382-.101.45-.035.89-.058 1.32-.03l1.246.039c.401.017.786.091 1.155.131.369.051.722.086 1.054.144l.935.218c.587.127 1.091.256 1.493.416l1.269.442-1.312-.276c-.411-.106-.924-.169-1.512-.219l-.931-.095c-.329-.015-.677-.004-1.037-.007-.361.008-.734-.017-1.12.017l-1.192.117a9 9 0 0 0-1.245.19c-.421.087-.853.152-1.283.26-.855.254-1.742.471-2.596.842-.876.3-1.702.761-2.541 1.161-.795.495-1.614.933-2.33 1.503-.756.508-1.404 1.129-2.052 1.687-.312.294-.589.613-.876.906a8 8 0 0 0-.789.901l-.697.886c-.221.287-.39.598-.576.875-.176.283-.361.55-.508.806l-.362.728-.322.629c-.098.206-.179.451-.257.643l-.483 1.253zm114.016-80.901.35 1.058c.109.356.251.701.411 1.121.148.416.358.898.597 1.427.464 1.058 1.097 2.265 1.839 3.533.381.628.775 1.281 1.215 1.919.419.655.9 1.281 1.361 1.927.492.619.966 1.26 1.483 1.847.498.606 1.022 1.171 1.529 1.723 1.031 1.084 2.043 2.059 2.963 2.836a30 30 0 0 0 2.294 1.805l.914.635-1.003-.488a30 30 0 0 1-2.575-1.448c-1.048-.638-2.223-1.462-3.445-2.404-.603-.48-1.23-.976-1.836-1.517-.625-.522-1.213-1.101-1.822-1.665-.579-.591-1.181-1.167-1.724-1.78-.564-.596-1.083-1.215-1.589-1.816-.992-1.216-1.872-2.405-2.56-3.48a22 22 0 0 1-.926-1.508c-.266-.467-.512-.889-.659-1.193l-.508-.992zm4.33-7.387.306 1.147c.094.384.225.76.368 1.228.132.459.329.993.544 1.576.425 1.166 1.005 2.507 1.694 3.921.354.702.72 1.431 1.134 2.149.391.733.847 1.441 1.283 2.168.47.7.916 1.425 1.417 2.091.479.685.985 1.332 1.484 1.954.498.623 1.013 1.196 1.501 1.743.512.52.972 1.047 1.451 1.47.467.439.895.846 1.307 1.166.405.329.749.635 1.062.842l.965.689-1.057-.544c-.345-.163-.729-.415-1.185-.687-.463-.264-.951-.608-1.488-.983-.551-.36-1.088-.82-1.689-1.276-.575-.482-1.187-.992-1.788-1.553a38 38 0 0 1-1.812-1.779c-.616-.612-1.18-1.285-1.773-1.941-.557-.681-1.139-1.35-1.656-2.051-.54-.685-1.032-1.388-1.511-2.07-.939-1.376-1.763-2.708-2.404-3.896-.322-.592-.618-1.136-.858-1.659-.242-.509-.474-.974-.608-1.309l-.468-1.091zm81.874 77.357c-1.195.85-2.341 1.704-3.744 2.551-1.351.888-2.665 1.581-3.992 2.342-1.334.719-2.68 1.402-4.028 2.077-1.362.63-2.71 1.306-4.086 1.896-1.378.583-2.738 1.221-4.13 1.758-1.39.543-2.765 1.138-4.169 1.636-1.402.506-2.79 1.058-4.204 1.526-1.412.473-2.815.976-4.234 1.424l-4.263 1.328-4.292 1.226-4.318 1.128c-1.436.389-2.895.687-4.341 1.035-1.446.35-2.904.648-4.364.941-1.458.3-2.915.604-4.385.846-1.469.247-2.929.54-4.405.748l-4.424.647h-.001l2.315-4.274a187 187 0 0 1 3.092 6.373 280 280 0 0 1 2.828 6.431 303 303 0 0 1 2.669 6.495 242 242 0 0 1 2.517 6.559 301 301 0 0 1 2.33 6.632q1.125 3.331 2.173 6.692c.674 2.248 1.353 4.495 1.97 6.763.644 2.259 1.218 4.54 1.804 6.818.553 2.288 1.112 4.575 1.583 6.885.512 2.3.927 4.625 1.367 6.944.396 2.329.802 4.657 1.117 7.005.364 2.338.603 4.701.864 7.059.196 2.369.425 4.733.522 7.115.162 2.375.166 4.767.224 7.154-.044 2.395-.028 4.787-.195 7.188-.087 2.394-.61 4.798-2.056 7.023l-5.958-.712c-.533-1.195-.75-2.334-.861-3.459a22 22 0 0 1-.045-3.348c.169-2.216.161-4.453.218-6.683-.046-2.238-.034-4.475-.177-6.718-.078-2.242-.286-4.485-.458-6.728-.247-2.241-.432-4.487-.745-6.726-.264-2.243-.619-4.479-.962-6.716-.388-2.232-.749-4.469-1.208-6.693-.427-2.229-.909-4.449-1.381-6.673-.51-2.216-1.006-4.437-1.573-6.643-.539-2.212-1.141-4.411-1.739-6.612-.602-2.2-1.224-4.395-1.877-6.583a296 296 0 0 0-2.034-6.543 320 320 0 0 0-4.429-12.984 281 281 0 0 0-2.44-6.409 195 195 0 0 0-2.55-6.307l-1.647-3.832 3.961-.441h.001l4.278-.626c1.427-.2 2.843-.486 4.265-.724 1.423-.234 2.836-.529 4.25-.82a108 108 0 0 0 4.233-.913c1.404-.338 2.819-.625 4.213-1.004l4.191-1.094 4.165-1.19 4.134-1.288c1.376-.434 2.733-.922 4.101-1.38 1.37-.453 2.707-.986 4.063-1.475 1.359-.481 2.677-1.054 4.017-1.576 1.344-.517 2.639-1.127 3.962-1.686 1.319-.566 2.592-1.207 3.891-1.806a147 147 0 0 0 3.788-1.953c1.215-.697 2.496-1.377 3.594-2.104 1.118-.656 2.329-1.548 3.521-2.399zm12.804-146.783s-1.11.815-3.013 1.618c-.949.402-2.095.791-3.358 1.082-.631.146-1.294.257-1.969.355-.682.041-1.37.158-2.067.135-.696-.004-1.392-.008-2.073-.107a23 23 0 0 1-1.011-.122l-.97-.224c-.316-.08-.634-.132-.931-.232l-.862-.321-.812-.306c-.254-.118-.488-.257-.719-.376-.456-.247-.877-.464-1.226-.697l-.87-.649c-.478-.361-.739-.577-.739-.577s.314.144.843.413l.945.487c.375.166.819.306 1.279.498.234.088.472.194.727.277l.803.221.843.235c.291.065.594.109.898.166l.928.166.963.081c.645.084 1.307.073 1.968.069.661.035 1.321-.069 1.973-.095.646-.091 1.29-.142 1.903-.258.612-.122 1.211-.212 1.768-.358.562-.124 1.086-.27 1.573-.402.967-.281 1.778-.529 2.329-.746.562-.201.877-.333.877-.333m-72.654-.099s.319.123.883.307c.557.201 1.375.426 2.349.679.49.118 1.019.249 1.584.357.56.13 1.162.203 1.777.307.616.098 1.262.131 1.91.203.652.007 1.315.092 1.974.039.661-.014 1.323-.022 1.966-.125l.961-.108.923-.192c.302-.066.604-.118.893-.192l.836-.259.797-.243c.253-.09.487-.203.719-.298.455-.205.895-.358 1.265-.535l.931-.513c.521-.283.831-.436.831-.436s-.255.223-.722.598l-.851.673c-.341.242-.757.471-1.205.731-.226.126-.457.272-.707.397l-.802.329-.853.346c-.295.108-.61.169-.924.259l-.963.252c-.33.059-.667.104-1.007.15-.678.118-1.373.141-2.069.166-.696.043-1.388-.055-2.07-.077a24 24 0 0 1-1.978-.299 20.4 20.4 0 0 1-3.387-.986c-1.928-.747-3.061-1.53-3.061-1.53m59.217 39.465-11.811-4.588-20.594-.794-11.128 8.091s10.109 3.14 23.505 2.586c7.362-.305 12.384-1.091 15.773-1.907a10.7 10.7 0 0 1 4.255-3.388"/><path style="fill:#393d49" d="m403.201 339.625-.377.448c-.255.287-.596.717-1.04 1.256a71 71 0 0 0-1.522 1.984l-1.887 2.641c-.693.982-1.468 2.062-2.458 3.153a15.2 15.2 0 0 1-3.709 3.02c-1.486.837-3.163 1.417-4.856 1.739a21 21 0 0 1-2.55.338l-.363.028-.298.014-.596.027c-.434.004-.911-.001-1.347-.019-3.484-.137-6.817-1.121-9.666-2.433-2.865-1.305-5.269-2.946-7.18-4.49a35 35 0 0 1-4.283-4.072c-.942-1.067-1.409-1.734-1.409-1.734l1.9 1.143a98 98 0 0 0 5.013 2.795c2.095 1.063 4.559 2.215 7.254 3.128 2.69.922 5.618 1.577 8.522 1.681l1.044.009.597-.018.298-.009.231-.016a28 28 0 0 0 2.155-.227c1.399-.215 2.704-.565 3.881-1.095 1.177-.528 2.246-1.227 3.234-2.04.994-.802 1.922-1.681 2.819-2.485.879-.82 1.728-1.564 2.521-2.174a22 22 0 0 1 2.109-1.5c.597-.391 1.107-.654 1.439-.828z"/><path style="fill:#393d49" d="M391.544 348.87c-2.963.867-6.08 1.318-8.672 1.328-8.474.034-14.549-1.94-19.248-5.051-.023-.353-.144-.679-.168-1.031-.03-.445.044-.89.098-1.331.019-.151-.229-.195-.264-.046-.08.339-.166.678-.218 1.023a4 4 0 0 0-.23-.706.48.48 0 0 0-.43-.287c3.12-1.161 5.952-3.126 7.773-5.208-.434.72.152 1.521.818 1.77.72.268 1.513.248 2.143-.087.309.074.636.093.974.026.332-.066.637-.265.965-.321s.679.026 1.008.041c.931.042 1.362-.717 1.313-1.451.226.071.468.1.71.073l.136-.02c.341.521 1.011.878 1.613.684.109-.035.207-.078.312-.115.188.255.439.459.754.536.851.207 1.435.138 1.928-.146.368.068.768.034 1.195-.117.285.004.585-.029.907-.129.98-.304 1.557-.934 1.798-1.663q.301-.32.478-.709c.089.143.169.29.277.424-.868.741-.549 2.569.882 2.465l1.98.226c.34.058.666.03.973-.052.639.317 1.432.316 2.145.028.659-.266 1.223-1.084.769-1.791 2.51 2.716 6.814 5.178 11.157 5.772-.352-1.272-.539-2.613-.63-4.038-.138-2.147-.134-4.3-.212-6.449-2.999-2.263-5.282-5.907-5.787-6.025a5.56 5.56 0 0 0-3.448-2.066 3.3 3.3 0 0 0-.866-.02c-.66-.228-1.332-.414-2.055-.466a6.5 6.5 0 0 0-1.389.053c-.54-.162-1.163-.171-1.862.055-1.298.419-2.414.931-3.41 1.599-.415-.243-.959-.291-1.441.063-.903.718-2.21.77-3.202 1.365q-.288.034-.583.079a.9.9 0 0 0-.299.107c-1.459-1.479-3.149-2.38-5.324-3.017-.705-.207-1.328-.181-1.863-.004a6.5 6.5 0 0 0-1.39-.015c-.72.072-1.387.276-2.041.522a3.3 3.3 0 0 0-.865.044 5.55 5.55 0 0 0-3.39 2.16c-.634.167-3.953 6.046-8.093 7.658.629 3.026.59 6.053-.083 9.216a15 15 0 0 0 3.098-.399c.114.223.237.458.373.622.192.232.464.395.749.438.242.303.437.629.775.864.197.137.449.1.646-.025.021.039.032.081.08.112 6.419 4.219 13.422 5.37 20.913 5.895 1.875.131 4.114.098 6.4-.17.356-.815.8-1.581 1.323-2.293m24.889-26.231a.4.4 0 0 0-.053-.115c-.021-.006.003.037.053.115"/><path style="fill:#393d49" d="M365.365 326.948a7.4 7.4 0 0 1 1.414-1.564c.549-.453 1.156-.868 1.835-1.162a7.3 7.3 0 0 1 2.171-.598c.717-.079 1.536-.03 2.257.068 1.467.193 2.785.63 4.069.866 1.281.246 2.506.413 3.722.313.619-.038 1.165-.142 1.877-.249.594-.111 1.213-.245 1.765-.431.556-.177 1.052-.437 1.805-.756.749-.312 1.576-.487 2.321-.594a15 15 0 0 1 1.112-.118l.323-.023.257-.006.515-.012c.837.012 1.6.081 2.368.252.766.174 1.518.423 2.236.761a9 9 0 0 1 1.05.58c.356.23.637.428 1.029.81l-1.792.09c.053-.04.214-.253.31-.41a4 4 0 0 0 .298-.552 5.3 5.3 0 0 0 .393-1.24 7.1 7.1 0 0 0 .009-2.75c-.094-.468-.191-.95-.35-1.419-.143-.475-.342-.936-.539-1.404-.405-.933-.918-1.836-1.459-2.742a14.5 14.5 0 0 1 2.23 2.278c.646.859 1.231 1.804 1.627 2.863.39 1.056.619 2.223.553 3.421a7.6 7.6 0 0 1-.329 1.785q-.135.44-.336.871c-.147.302-.257.536-.529.902l-.607.817-1.185-.727c-.122-.074-.409-.267-.643-.387a6.5 6.5 0 0 0-.783-.355 8.2 8.2 0 0 0-1.696-.433c-.584-.076-1.194-.1-1.729-.096l-.514.032-.257.016c.017.003-.132.017-.189.024a18 18 0 0 0-.933.115 7.5 7.5 0 0 0-1.656.433c-.517.199-1.256.553-2.015.776-.757.231-1.487.37-2.246.488a14 14 0 0 1-2.217.161c-.767.009-1.526-.088-2.27-.203a14 14 0 0 1-2.144-.547c-1.373-.457-2.632-.994-3.847-1.404-.619-.194-1.168-.33-1.825-.387a6 6 0 0 0-1.866.127c-1.256.274-2.497.871-3.59 1.72"/><path style="fill:#393d49" d="m368.728 314.964-.719 2.112c-.196.594-.42 1.25-.606 1.927-.097.337-.168.684-.257 1.023-.042.347-.161.684-.169 1.028l-.074.51c.006.17-.011.338-.02.508-.046.34.007.671-.004 1.008-.026.34.074.658.081.988.001.334.097.635.139.938.06.295.059.607.139.852.07.248.108.487.148.684.075.396.099.656.099.656s-.224-.09-.582-.305c-.177-.109-.402-.241-.634-.419-.255-.161-.467-.408-.717-.674-.236-.275-.523-.565-.711-.948-.188-.378-.458-.765-.568-1.229-.124-.457-.296-.936-.3-1.444-.017-.252-.041-.508-.043-.765.015-.254.046-.509.073-.764.049-.515.21-.995.36-1.468a7.24 7.24 0 0 1 2.248-3.131c.567-.439 1.088-.726 1.481-.883.388-.164.636-.204.636-.204m40.323-19.88c-.641-.899-.343-1.912.365-2.647.694-.721 1.867-.561 2.534.079.191.094.351.228.495.38a4.3 4.3 0 0 0-.104-1.302c-.319-1.337-1.066-2.474-2.264-3.187-1.749-1.04-4.045-.822-5.549.553a4.6 4.6 0 0 0-.574.651c-.134.159-.275.316-.383.489a4.7 4.7 0 0 0-.7 2.259q-.051 1.26.534 2.378c.195.5.548.974.942 1.333.855.78 1.931 1.439 3.139 1.44 1.193.001 2.489-.343 3.338-1.237.097-.102.186-.211.276-.319-.79-.031-1.561-.185-2.049-.87m-9.177-5.668c-1.066.647-2.315 1.098-3.046 2.173a3.2 3.2 0 0 0-.332.655c.1-.432.281-.863.575-1.285.241-.346-.261-.675-.471-.32-.436.738-.616 1.479-.605 2.199a.4.4 0 0 0-.319.084.6.6 0 0 0-.121.042.48.48 0 0 0-.406.06.8.8 0 0 0-.176.168 3 3 0 0 1 .045-.584c-.187.132-.41.226-.667.27-.003.137-.008.274.008.407a.37.37 0 0 0-.12.164.9.9 0 0 0-.35.189c-.22-.034-.446.163-.452.38.424.322.791.763 1.71 1.228.012-.005 1.993.852 2.341 1.035.045.018.077.052.117.077.027-.025.038-.062.001-.09q-.108-.081-.217-.159.019-.032.028-.068c.095.103.182.211.284.31.056.054.128-.033.079-.088-.611-.688-1.059-1.475-1.262-2.297.126-.807.417-1.525 1.111-2.078.823-.657 1.849-.989 2.771-1.478.639-.341.09-1.368-.526-.994"/><path style="fill:#393d49" d="M420.158 294.833s-.316.264-.883.707l-1.134.674c-.462.201-.97.488-1.567.672-.59.208-1.236.416-1.935.576-.692.198-1.439.306-2.21.435-.775.076-1.577.202-2.396.214-.818.052-1.649.037-2.481.03-1.659-.078-3.318-.219-4.845-.518-.769-.115-1.498-.305-2.189-.478-.694-.155-1.332-.38-1.928-.548-.599-.161-1.122-.395-1.594-.569a16 16 0 0 1-1.201-.503c-.657-.299-1.025-.481-1.025-.481l1.091.298c.343.103.76.227 1.248.332.489.103 1.026.26 1.626.38.601.115 1.24.283 1.934.378.69.112 1.416.228 2.172.321.752.118 1.536.169 2.329.251.794.075 1.604.108 2.412.138 1.618.062 3.234-.004 4.745-.117.747-.106 1.485-.137 2.164-.274a17 17 0 0 0 1.913-.4c.591-.141 1.106-.344 1.586-.476l1.174-.496c.629-.354.994-.546.994-.546"/><path style="fill:#393d49" d="M392.957 294.853c.606-1.282 1.448-2.445 2.392-3.514.471-.538.978-1.048 1.512-1.532.542-.472 1.093-.95 1.695-1.359a18 18 0 0 1 1.853-1.179c.644-.357 1.313-.68 2.003-.96.69-.284 1.398-.525 2.128-.712.719-.231 1.473-.315 2.217-.451l.14-.023.07-.012.035-.006.164-.011.256-.015.512-.021.512-.021c.186 0 .425.024.635.037.426.039.888.056 1.283.136l1.157.255c.747.214 1.5.441 2.184.77.711.288 1.363.661 2.013 1.032.63.395 1.251.8 1.825 1.255.591.434 1.134.922 1.664 1.414a22 22 0 0 1 1.504 1.556c.477.55.914 1.089 1.352 1.721l-1.202-.282c.879-.214 1.773-.39 2.661-.581.9-.163 1.798-.329 2.722-.431-.737.567-1.499 1.07-2.261 1.576-.773.478-1.539.971-2.321 1.426l-.475.276-.727-.558a35 35 0 0 0-1.565-1.153 34 34 0 0 0-1.624-1.087 34 34 0 0 0-3.325-1.861c-.569-.243-1.128-.504-1.696-.7a6 6 0 0 0-.851-.28c-.284-.073-.564-.189-.847-.24l-.847-.17c-.275-.045-.499-.051-.751-.091-.13-.013-.23-.043-.384-.047l-.512-.006-.512-.004h-.28c-.031 0 .243.001.124.009l-.028.012-.057.011-.113.015c-.604.073-1.214.115-1.816.245-.611.082-1.206.248-1.812.394-.606.148-1.199.357-1.802.549a31 31 0 0 0-1.787.695 41 41 0 0 0-3.536 1.742 48 48 0 0 0-3.482 2.181m-28.549-2.497q-.033-.05-.063-.103c.033-.222-.047-.465-.313-.568l-.471-.18a.41.41 0 0 0-.366.046l-.017-.018a4.2 4.2 0 0 0-.622-1.749c-.12-.193-.32-.173-.438-.062-.335-.379-.777-.638-1.113-1.017-.529-.597-1.468.279-.905.85.63.639 1.339.974 1.844 1.753.228.351.127.692.275 1.087.085.227-.221.446-.221.675v.005c0 .836-.255 1.642-.852 2.347-.048.057.206.148.261.092.1-.102.275-.208.367-.314.005.024.063.047.074.069-.071.055-.121.109-.191.165-.037.03-.014.067.014.091.039-.026.076-.059.121-.079.344-.191 2.307-1.093 2.319-1.088.772-.413 1.146-.795 1.497-1.106-.475-.118-.889-.445-1.2-.896m-10.177.451.005-.135c.076-1.97 2.415-2.346 3.489-1.277a4.4 4.4 0 0 0-.216-.817c-.973-2.603-4.042-4.121-6.654-3.023-.19.08-.369.177-.54.283-1.723.688-2.785 2.56-2.516 4.405.223 1.528 1.3 2.845 2.589 3.641 1.481.914 3.432 1.138 4.999.307a4.4 4.4 0 0 0 1.613-1.495c-1.204.425-2.833-.23-2.769-1.889"/><path style="fill:#393d49" d="m340.383 295.062 1.051.153c.664.111 1.624.211 2.764.359 1.145.126 2.476.278 3.905.384.714.064 1.452.101 2.202.137.749.055 1.511.054 2.271.064.761.033 1.52-.019 2.268-.024l2.19-.137 2.033-.261 1.803-.357 1.497-.426c.46-.102.815-.301 1.13-.417.622-.253.989-.388.989-.388s-.32.211-.903.563c-.297.162-.635.419-1.078.588-.434.192-.925.415-1.472.63l-1.817.538c-.656.142-1.353.276-2.076.404-.727.071-1.479.186-2.246.227-.767.017-1.548.083-2.326.059-1.558-.028-3.112-.125-4.555-.327-.724-.074-1.415-.213-2.073-.319-.656-.113-1.272-.252-1.839-.375a41 41 0 0 1-2.709-.733c-.648-.2-1.009-.342-1.009-.342m25.912-1.148c-2.347-1.542-4.671-2.82-7.039-3.783a24.5 24.5 0 0 0-3.563-1.154 19 19 0 0 0-3.587-.519l-.224-.013-.056-.003-.028-.222c.033.001-.083-.219.072-.219h-.152c-.151 0-.382.216-.468.233l-.319.14-.396.105c-.537.084-1.091.266-1.66.432-1.135.351-2.293.865-3.454 1.409a73 73 0 0 0-3.491 1.806c-1.155.648-2.365 1.29-3.518 1.976l-.384.23-.205-.076c-1.506-.569-3.012-1.134-4.501-1.77 1.614.129 3.211.328 4.808.524l-.589.151c.87-1.133 1.786-2.193 2.818-3.161a25.5 25.5 0 0 1 3.316-2.687c1.192-.812 2.481-1.529 3.916-2.071a12.7 12.7 0 0 1 2.278-.637l.614-.091c.216-.028.466-.038.697-.051.253-.014.363 0 .551-.001l.128.002.147.006.071.005.284.022c3.043.221 5.947 1.346 8.338 3.011.6.416 1.174.862 1.711 1.346.539.48 1.052.984 1.52 1.527.464.547.926 1.084 1.314 1.685.403.584.77 1.195 1.051 1.848m61.196-8.454s-.331-.528-.931-1.419c-.343-.405-.66-.915-1.158-1.445-.456-.551-1.039-1.107-1.666-1.691a17 17 0 0 0-2.196-1.644c-.822-.505-1.697-1.001-2.66-1.392-.952-.407-1.972-.729-3.017-1.007-1.039-.291-2.136-.46-3.225-.598-1.097-.12-2.213-.109-3.3-.032-1.092.102-2.146.201-3.168.248a34 34 0 0 1-2.967-.06c-.956-.054-1.866-.093-2.728-.164l-4.306-.309-1.309-.068-.497-.021-.373-.592s.08-.165.264-.46c.181-.304.483-.7.917-1.162.858-.933 2.279-2.024 4.154-2.89a17.3 17.3 0 0 1 3.116-1.088 14.3 14.3 0 0 1 3.623-.479c1.27-.011 2.583.219 3.888.516 1.307.318 2.612.686 3.902 1.095 1.287.424 2.558.891 3.756 1.492 1.208.565 2.33 1.274 3.351 2.03a19 19 0 0 1 2.726 2.416 20 20 0 0 1 1.986 2.535c.53.837.954 1.629 1.272 2.353.354.695.548 1.39.745 1.907.296 1.05.443 1.647.443 1.647zm-97.16 1.546.43-1.838c.195-.581.392-1.337.738-2.132.173-.398.344-.832.554-1.278l.733-1.377.935-1.435c.367-.464.73-.969 1.149-1.451.845-.951 1.82-1.914 2.946-2.753.545-.455 1.153-.819 1.752-1.239.619-.364 1.251-.753 1.914-1.062 1.313-.677 2.7-1.21 4.099-1.691a83 83 0 0 1 4.2-1.289c1.39-.376 2.772-.674 4.107-.784a20 20 0 0 1 3.816.072c1.201.116 2.314.301 3.332.516 2.033.424 3.674.952 4.846 1.349l1.38.459.513.177.15.684s-.147.132-.447.353c-.3.232-.753.512-1.352.825-.596.303-1.334.648-2.176.938-.845.303-1.789.589-2.809.835-1.018.254-2.11.473-3.242.658a30 30 0 0 1-3.515.41c-1.205.062-2.441.025-3.7.003-1.249-.001-2.524.038-3.755.229-1.228.195-2.454.431-3.606.791-1.159.349-2.283.746-3.319 1.249-1.061.47-1.984 1.093-2.876 1.695-.438.31-.832.653-1.239.967l-1.081 1.02-.934 1.023c-.285.338-.534.679-.784.992-.495.63-.831 1.223-1.178 1.698l-.93 1.639zm39.414-8.811.28.315c.168.205.433.54.702.979.277.435.604.971.924 1.608.327.634.681 1.357 1.02 2.163 1.357 3.219 2.631 7.724 2.831 12.496a30 30 0 0 1-.082 3.53 80 80 0 0 1-.292 3.265 76 76 0 0 1-.838 5.776 56 56 0 0 1-.919 4.073c-.261.982-.458 1.541-.458 1.541s-.153-.573-.338-1.571a57 57 0 0 1-.602-4.132 76 76 0 0 1-.391-5.824 79 79 0 0 1-.04-3.278c.002-1.155.022-2.132-.037-3.227-.025-1.071-.117-2.153-.189-3.225l-.283-3.163-.596-5.68c-.174-1.678-.33-3.088-.454-4.079-.114-.973-.238-1.567-.238-1.567m23.759 86.057s-.283.048-.753.098c-.47.049-1.131.104-1.901.138-1.543.07-3.514.036-5.427 0-.482-.037-.951.004-1.423-.026-.467-.001-.919.012-1.369-.006-.437.022-.866.026-1.281.026q-.602.048-1.163.059c-.354.044-.694.073-1.006.096-.317.017-.57.086-.802.116-.456.074-.755.099-.755.099s.141-.235.455-.615c.162-.178.343-.452.618-.641.263-.213.57-.462.927-.7.365-.201.773-.409 1.218-.615.447-.164.93-.324 1.437-.462.504-.098 1.035-.217 1.573-.263.534-.04 1.087-.088 1.626-.066a14.6 14.6 0 0 1 3.131.407c.977.23 1.858.558 2.59.896.73.35 1.312.7 1.705.983.395.276.6.476.6.476m46.51-54.084-.328.921-.89 2.369a117 117 0 0 1-2.98 7.047c-1.174 2.522-2.487 4.997-3.721 6.707-.611.856-1.206 1.512-1.674 1.906-.243.19-.429.335-.577.408l-.213.123.171-.176c.118-.105.257-.294.428-.528.328-.485.699-1.233 1.037-2.173.686-1.879 1.255-4.507 1.684-7.158.431-2.651.732-5.326.921-7.331l.205-2.418.06-.9zm-120.576-5.685.027.277.101.832c.095.724.248 1.77.474 3.021.448 2.503 1.194 5.836 2.316 9.044.557 1.605 1.21 3.175 1.948 4.582.369.703.75 1.373 1.155 1.977a15 15 0 0 0 1.224 1.65c.405.495.823.908 1.209 1.259.385.355.751.63 1.064.844.302.236.578.352.75.465l.274.158-.3-.096c-.191-.073-.498-.132-.847-.3a10 10 0 0 1-1.265-.621c-.473-.273-1-.607-1.531-1.027a16 16 0 0 1-1.651-1.443 23 23 0 0 1-1.659-1.806c-1.094-1.306-2.134-2.799-3.078-4.345-1.898-3.092-3.425-6.384-4.463-8.898a69 69 0 0 1-1.195-3.081l-.311-.892-.109-.335zm96.88-49.166.495-4.246c.294-2.547.715-5.929.982-9.311.266-3.382.316-6.79.306-9.35l-.057-4.27.525 4.242c.292 2.549.618 5.967.726 9.411s.058 6.873.045 9.435l-.027 4.27zm7.19 4.446 2.082-15.062.916 15.178zm-114.361-7.079 1.128-.927a73 73 0 0 1 3.138-2.436c.653-.492 1.379-1 2.148-1.531.763-.539 1.598-1.065 2.447-1.622a88 88 0 0 1 5.495-3.19 88 88 0 0 1 5.7-2.726c.93-.384 1.819-.771 2.682-1.092a62 62 0 0 1 2.428-.894 68 68 0 0 1 3.674-1.186l1.403-.406-1.327.607c-.842.388-2.038.958-3.439 1.702-.705.361-1.454.779-2.243 1.226-.793.437-1.604.943-2.449 1.448a86 86 0 0 0-5.104 3.442 85 85 0 0 0-4.785 3.817c-.727.649-1.441 1.26-2.085 1.876a60 60 0 0 0-1.805 1.738 67 67 0 0 0-2.576 2.691l-.98 1.083zm2.384-11.569.689-.461c.425-.281 1.129-.756 1.915-1.235a59 59 0 0 1 5.997-3.242 59 59 0 0 1 6.244-2.486c1.728-.573 2.892-.881 2.892-.881s-1.05.599-2.552 1.585a57 57 0 0 0-5.246 3.895 56 56 0 0 0-4.686 4.414c-.613.642-1.044 1.14-1.407 1.547l-.547.623zm.379 18.24.678-.477c.418-.29 1.112-.781 1.887-1.277a59 59 0 0 1 5.923-3.375 59 59 0 0 1 6.187-2.624c1.715-.612 2.872-.945 2.872-.945s-1.036.622-2.516 1.641a57 57 0 0 0-5.159 4.011 56 56 0 0 0-4.587 4.517c-.599.656-1.019 1.163-1.372 1.578l-.533.635z"/><path style="fill:none;stroke:#393d49;stroke-width:6;stroke-miterlimit:10" d="m325.556 364.031-4.606-23.999m117.669-61.147-2.165-47.817s-7.64-23.299-60.205-23.599c-53.494-.305-64.511 32.077-64.511 32.077l.327 39.602m94.036 343.239s13.807 10.267 6.492 27.29-2.258 26.592-16.336 36.143c-10.558 7.164-19.327 29.437-19.327 29.437s7.639 4.049 16.412 5.782c22.689 4.48 49.075 5.498 52.892-6.613s36.252-28.886 15.835-70.052"/><path style="fill:#393d49" d="m404.404 569.121.639-1.326c.449-.889 1.104-2.194 2.226-3.84 1.122-1.607 2.841-3.681 5.673-5.125 1.394-.722 3.025-1.179 4.691-1.371 1.675-.198 3.373-.099 5.046.16 1.675.264 3.33.701 4.969 1.25a41 41 0 0 1 2.45.907l2.338.988a51.4 51.4 0 0 0 9.595 2.855c3.429.68 7.05 1.045 10.711.992 3.657-.065 7.361-.536 10.858-1.541a28 28 0 0 0 4.984-1.986c.377-.22.776-.413 1.137-.651l.553-.342c.364-.225.385-.25.763-.46 1.179-.66 2.29-1.03 3.448-1.296 2.292-.503 4.424-.451 6.405-.349 1.987.113 3.857.313 5.67.456 3.616.304 7.019.367 10.201-.038a37 37 0 0 0 8.751-2.189 38 38 0 0 0 3.73-1.627 43 43 0 0 0 3.277-1.751c2.036-1.171 3.737-2.351 5.149-3.326 1.401-.99 2.487-1.809 3.232-2.367l1.142-.862-.847 1.158a43 43 0 0 1-2.609 3.112 42 42 0 0 1-4.629 4.362 37.3 37.3 0 0 1-7.04 4.523c-2.783 1.352-6.021 2.479-9.556 3.051-3.528.606-7.312.686-11.07.53-1.878-.069-3.754-.186-5.57-.21-1.812-.025-3.572.058-5.07.441-.728.184-1.466.487-1.983.803-.056.017-.432.279-.485.311l-.681.455c-.451.313-.926.57-1.391.856a33.4 33.4 0 0 1-5.892 2.58c-4.045 1.321-8.223 1.954-12.322 2.106a57 57 0 0 1-11.97-.845 57.4 57.4 0 0 1-10.841-3.094l-2.29-.936c-.715-.277-1.417-.552-2.108-.779-1.382-.466-2.717-.815-3.963-1.013-2.515-.417-4.559-.139-6.03.617-1.494.737-2.582 1.983-3.441 3.16-.847 1.191-1.443 2.302-1.838 3.055l-.613 1.216z"/><path style="fill:#393d49" d="m490.991 559.779-.204-.915a78 78 0 0 1-.482-2.519 95 95 0 0 1-1.116-8.973 84 84 0 0 1-.264-6.026c-.024-1.07-.01-2.17.032-3.296.012-1.123.099-2.273.181-3.44.163-2.334.497-4.738.935-7.161.112-.605.268-1.208.402-1.814l.393-1.724.363-1.777c.118-.592.266-1.198.294-1.747.275-2.216.381-4.597.289-6.927-.069-2.333-.297-4.639-.607-6.862-.301-2.226-.704-4.368-1.129-6.393-.43-2.025-.906-3.926-1.365-5.678a140 140 0 0 0-1.382-4.75 123 123 0 0 0-1.195-3.628c-.694-2.002-1.144-3.129-1.144-3.129s.535 1.088 1.384 3.035c.428.972.923 2.163 1.476 3.536a140 140 0 0 1 1.756 4.657 124 124 0 0 1 1.819 5.614c.588 2.013 1.166 4.153 1.649 6.402.492 2.246.911 4.596 1.172 7.021.28 2.423.381 4.901.249 7.512.002.666-.096 1.249-.168 1.852l-.225 1.8-.27 1.826c-.08.575-.183 1.143-.244 1.717-.232 2.299-.372 4.569-.354 6.776.008 1.103.009 2.185.081 3.248a52 52 0 0 0 .21 3.107c.164 2.017.421 3.919.69 5.666a90 90 0 0 0 1.703 8.355c.255.992.47 1.759.621 2.277l.236.769zm-80.988 8.75.413 1.24c.237.655.676 1.76 1.343 3.088 1.33 2.665 3.675 6.404 7.251 10.397 1.775 2 3.836 4.069 6.146 6.119a79 79 0 0 0 7.605 6.042q1.032.727 2.108 1.419l1.082.687 1.145.716c.749.467 1.548.997 2.347 1.528.782.537 1.564 1.071 2.336 1.642 3.081 2.272 6.153 4.799 8.72 8.056 1.271 1.631 2.43 3.45 3.205 5.544.783 2.074 1.117 4.457.776 6.722-.37 2.268-1.131 4.264-2.635 6.164a11.3 11.3 0 0 1-2.52 2.279 13.8 13.8 0 0 1-2.889 1.399c-3.945 1.289-7.646 1.077-10.972.696a44 44 0 0 1-4.779-.86c-1.516-.355-2.965-.719-4.328-1.16a112 112 0 0 1-3.875-1.316q-1.817-.702-3.41-1.375a82 82 0 0 1-5.394-2.529 68 68 0 0 1-3.365-1.834l-1.168-.692s1.85.42 5.019 1.242l5.703 1.437c1.094.282 2.264.553 3.494.834 1.226.292 2.516.583 3.863.852 2.687.56 5.607 1.056 8.653 1.308 3.018.238 6.283.161 8.985-.888 1.333-.534 2.451-1.308 3.206-2.359.73-.938 1.265-2.488 1.406-3.848.315-2.757-1.058-5.623-3.238-8.152-2.18-2.526-4.946-4.771-7.837-6.761-.719-.503-1.464-.981-2.196-1.455-.731-.457-1.453-.911-2.247-1.376l-1.148-.696-1.185-.734a70 70 0 0 1-2.299-1.512c-6.009-4.095-11.039-8.677-14.909-13.067-3.886-4.374-6.598-8.58-8.12-11.788a35 35 0 0 1-1.602-3.896l-.412-1.313z"/><path style="fill:#393d49" d="m334.135 564.745.714.499c.25.184.493.328.77.495.267.173.618.374 1.043.599 1.647.896 4.203 2.006 7.497 2.911 3.289.906 7.295 1.607 11.639 1.925 4.335.314 9.036.331 13.565-.269a41 41 0 0 0 3.326-.567c.545-.108 1.068-.247 1.587-.383l.865-.25.869-.222c1.096-.31 2.446-.554 3.698-.802 1.208-.176 2.407-.363 3.57-.467a74 74 0 0 1 3.426-.303c1.117-.098 2.205-.133 3.266-.173 2.119-.071 4.115-.089 5.955-.089s3.523.047 5.016.228a27 27 0 0 1 2.089.273c.645.097 1.236.211 1.77.334 2.135.464 3.341.985 3.341.985s-1.217.487-3.322.993c-.526.133-1.108.27-1.741.384q-.95.207-2.046.368c-1.459.262-3.103.436-4.895.612-1.789.194-3.724.421-5.753.71-2.024.313-4.165.576-6.32 1.012-1.091.18-2.156.465-3.251.681-1.027.273-2.003.477-3.185.88l-1.712.538c-.637.184-1.277.365-1.913.506-1.274.308-2.547.53-3.817.712a64 64 0 0 1-7.555.614c-2.486.059-4.93.021-7.288-.167-4.717-.355-9.101-1.123-12.818-2.153-3.72-1.017-6.76-2.34-8.804-3.522-.974-.535-1.96-1.2-2.367-1.497l-.704-.512z"/><path style="fill:#393d49" d="m331.719 589.538-.064-1.25a86 86 0 0 0-.301-3.609 93 93 0 0 0-.744-5.601c-.338-2.157-.839-4.56-1.476-7.153-.686-2.571-1.547-5.319-2.732-8.073l-.98-2.038c-.341-.681-.759-1.311-1.139-1.985-.36-.697-.878-1.247-1.315-1.891l-.343-.471-.086-.118-.134-.168-.199-.252-.799-1.013a53.5 53.5 0 0 1-5.819-9.391c-1.65-3.363-2.949-6.93-3.979-10.545-1.028-3.617-1.792-7.286-2.355-10.908-.559-3.649-.914-7.146-1.607-10.491-1.34-6.709-3.355-12.828-5.305-17.98-1.945-5.159-3.795-9.38-5.11-12.322l-2.098-4.612 2.331 4.501c1.464 2.875 3.529 6.999 5.746 12.08 2.22 5.075 4.571 11.141 6.288 17.916.883 3.387 1.436 6.98 2.156 10.47.731 3.515 1.656 7.033 2.818 10.451 1.164 3.416 2.572 6.735 4.278 9.805 1.705 3.088 3.652 5.895 5.813 8.405l.849.971.211.242.18.213.44.536c.56.725 1.22 1.399 1.673 2.16.48.747 1.003 1.472 1.43 2.221l1.222 2.241c1.476 2.996 2.556 5.926 3.434 8.654.824 2.737 1.485 5.268 1.959 7.529.488 2.259.836 4.24 1.088 5.88a92 92 0 0 1 .517 3.83l.142 1.39z"/><path style="fill:#393d49" d="m378.498 616.847-.583-.734a94 94 0 0 0-1.739-2.086 123 123 0 0 0-6.638-7.157c-1.444-1.41-3.019-2.934-4.767-4.44-1.729-1.534-3.633-3.041-5.652-4.522-1.027-.707-2.058-1.461-3.157-2.113l-.818-.51-.205-.128-.103-.064-.051-.032c.019.009-.078-.043.036.016l-.028-.015-.444-.237c-.292-.153-.602-.329-.882-.463l-.813-.365c-2.277-.998-4.902-1.668-7.526-2.21-5.289-1.062-10.781-1.566-15.913-2.161-5.138-.579-9.961-1.205-14.015-2.192-2.026-.488-3.856-1.062-5.427-1.699a20.4 20.4 0 0 1-3.869-2.053c-.992-.703-1.692-1.356-2.127-1.833l-.651-.747.699.699c.463.444 1.2 1.042 2.219 1.664a20 20 0 0 0 3.922 1.75c1.579.518 3.405.957 5.423 1.299 4.038.696 8.827.991 13.976 1.218 5.151.246 10.674.367 16.256 1.094 2.794.387 5.587.877 8.359 1.866l1.065.401c.338.136.623.276.936.413l.459.206.52.273.914.486c1.233.625 2.376 1.344 3.523 2.025 2.246 1.422 4.364 2.877 6.282 4.358 1.942 1.456 3.691 2.931 5.298 4.301 3.19 2.766 5.699 5.23 7.431 6.99a98 98 0 0 1 1.989 2.081l.702.77z"/><path style="fill:#393d49" d="m405.983 626.338-.672-.666a28 28 0 0 0-2.053-1.76c-1.864-1.459-4.776-3.437-8.534-5.231-1.874-.886-3.968-1.736-6.173-2.29-1.097-.272-2.228-.467-3.289-.49-1.062-.034-2.035.151-2.615.505-.073.045-.144.088-.206.14l-.048.037-.025.018c-.021.019.146-.145.064-.064l-.023.022-.187.181c-.29.266-.414.432-.576.608-.359.414-.778.97-1.168 1.506-.793 1.103-1.586 2.291-2.393 3.487-1.611 2.403-3.285 4.867-5.06 7.259-3.535 4.797-7.494 9.316-11.655 13.053a70 70 0 0 1-6.267 5.044c-2.1 1.457-4.131 2.761-6.092 3.811-.959.561-1.934.997-2.829 1.465-.911.438-1.794.813-2.611 1.187-1.666.681-3.126 1.246-4.354 1.64-1.211.438-2.196.681-2.854.882l-1.014.293.99-.366c.642-.248 1.602-.56 2.775-1.083 1.189-.478 2.597-1.144 4.191-1.935.782-.428 1.624-.861 2.489-1.356.848-.526 1.772-1.02 2.673-1.64 1.846-1.167 3.739-2.588 5.679-4.151a68 68 0 0 0 5.727-5.335c3.765-3.91 7.262-8.538 10.35-13.433 1.554-2.444 3.005-4.953 4.436-7.464.721-1.256 1.431-2.51 2.204-3.768.4-.639.781-1.243 1.288-1.926.28-.365.586-.749.794-.967l.173-.194.022-.024.111-.109.074-.067.148-.132c.198-.176.409-.333.621-.48 1.746-1.162 3.571-1.409 5.135-1.46 1.59-.038 3.039.16 4.403.429 2.722.554 5.11 1.411 7.259 2.305 4.285 1.81 7.584 3.831 9.839 5.43a34 34 0 0 1 2.569 2.005c.623.544.864.78.864.78zM225.93 558.837s.044.407.172 1.16c.114.755.351 1.852.657 3.236.335 1.379.788 3.04 1.433 4.891.672 1.839 1.538 3.869 2.727 5.918 1.231 2.016 2.832 4.027 4.912 5.601l.783.595c.282.168.578.316.868.478l.876.48.11.061.055.03c-.119-.052-.015-.008-.033-.016l.032.012.256.098.514.197c.685.257 1.397.568 2.035.692.658.164 1.296.376 2.022.444 2.819.471 5.823.222 8.807-.445 2.99-.674 5.957-1.812 8.84-3.16 2.899-1.322 5.73-2.853 8.47-4.464l4.068-2.419 2.032-1.224 2.003-1.152c2.768-1.521 5.567-2.705 8.253-3.646 2.694-.941 5.296-1.605 7.69-2.167l6.51-1.459c1.922-.451 3.574-.911 4.891-1.414.658-.253 1.248-.479 1.733-.735.494-.239.925-.434 1.235-.653l.993-.623-.9.757c-.284.266-.685.519-1.151.831-.456.334-1.025.635-1.667.969-1.284.667-2.913 1.345-4.814 1.971-1.895.654-4.052 1.294-6.373 2.018-2.318.738-4.802 1.574-7.355 2.601-2.55 1.051-5.132 2.339-7.689 3.819l-1.964 1.216-1.943 1.26a108 108 0 0 1-4.075 2.545c-2.774 1.669-5.666 3.282-8.687 4.692-3.032 1.377-6.198 2.561-9.479 3.266-3.27.719-6.69.835-9.891.211-.798-.105-1.602-.379-2.39-.615-.831-.214-1.467-.543-2.144-.84l-.502-.224-.25-.112-.127-.058-.063-.038-.126-.077-.998-.613c-.327-.206-.66-.401-.975-.614l-.868-.728c-2.307-1.924-3.881-4.281-5.026-6.523-1.121-2.268-1.81-4.461-2.316-6.412-.496-1.956-.745-3.693-.924-5.118a38 38 0 0 1-.233-3.323c-.026-.769-.014-1.177-.014-1.177m-3.735-34.033s.201 1.017.739 2.722c.541 1.694 1.422 4.105 2.981 6.622.8 1.238 1.783 2.489 2.997 3.565a11.6 11.6 0 0 0 4.34 2.405c.818.26 1.691.388 2.579.46.911.044 1.769.017 2.769-.059 2.027-.151 4.031-.33 6.073-.53l6.111-.487c2.022-.17 4.03-.222 5.974-.283a62 62 0 0 1 5.632.111 38 38 0 0 1 5.036.599c1.551.254 2.952.641 4.164 1.035.603.215 1.172.389 1.683.597l1.378.629a7 7 0 0 1 1.078.56l.77.458.636.379-.706-.232c-.467-.132-1.112-.411-1.987-.607l-1.427-.358-1.699-.312c-.598-.132-1.259-.172-1.941-.255a27 27 0 0 0-2.157-.186c-.75-.065-1.539-.072-2.353-.077-.811-.027-1.656-.01-2.522.006-1.732.031-3.563.171-5.458.288-1.898.135-3.857.361-5.861.531l-6.09.587c-2.045.165-4.133.315-6.137.43-2.1.161-4.378-.049-6.371-.786-2.029-.686-3.742-1.93-5.061-3.299-1.333-1.371-2.254-2.906-2.954-4.348-1.368-2.915-1.832-5.523-2.059-7.322-.207-1.807-.157-2.843-.157-2.843m164.532 173.109-.98-.015a100 100 0 0 1-2.722-.105 132 132 0 0 1-9.636-.863c-3.968-.502-8.58-1.262-13.441-2.452a93 93 0 0 1-7.413-2.135 72 72 0 0 1-7.397-2.926c-1.219-.548-2.403-1.045-3.617-1.464a40 40 0 0 0-3.704-1.109c-2.487-.63-4.995-1.03-7.442-1.264-4.897-.481-9.522-.34-13.485-.299-3.959.06-7.307-.055-9.555-.691-1.121-.308-1.953-.704-2.471-1.045-.269-.154-.442-.323-.574-.413l-.193-.147.198.14c.135.085.313.247.587.391.528.321 1.367.684 2.486.949 2.245.549 5.561.547 9.509.347 3.952-.18 8.587-.49 13.574-.179 2.491.149 5.065.465 7.642 1.021 1.292.263 2.577.614 3.855 1.007 1.288.395 2.56.877 3.768 1.371 9.688 4.068 20.149 5.663 27.945 6.381 3.909.353 7.179.473 9.461.51 1.141.018 2.036.015 2.642.008l.918-.019z"/><path style="fill:none;stroke:#393d49;stroke-width:6;stroke-miterlimit:10" d="M411.188 627.551c17.422.031 45.902 20.597 67.502 18.907 12.236-.958 23.029-17.138 13.081-32.664s-11.823-46.772-31.54-47.097"/><path style="fill:none;stroke:#393d49;stroke-width:6;stroke-miterlimit:10" d="M481.858 645.724c12.269 2.771 55.165 12.268 69.014 3.743s25.749-8.607 30.381-16.54 17.843-27.974 8.291-46.729-17.172-31.487-26.682-51.322-22.8-39.816-24.979-53.419c-2.179-13.604-11.585-36.139-25.727-48.04-14.142-11.902-13.83-20.002-30.59-20.107s-42.211-3.25-47.616-8.326c-5.405-5.075-14.212-5.608-14.212-5.608m-66.711 23.578s5.901-26.812 1.145-29.699-12.295-3.719-17.88-13.128c-5.586-9.409-10.736-16.097-10.736-16.097s-10.625 9.324-12.791 23.301c0 0-30.951 19.356-48.252 25.178s-47.874 13.296-56.1 30.284 3.523 76.927 1.693 96.325 19.972 71.072 28.984 89.806 14.657 37.339 17.377 52.585 84.447 31.377 119.969 33.829"/><path style="fill:none;stroke:#393d49;stroke-width:6;stroke-miterlimit:10" d="M312.765 387.332s5.934 14.289 25.455 26.939S401.784 445 401.784 445s16.439-11.96 17.112-17.342 8.268-37.381-3.091-51.338l-11 22.133s16.179 19.554 11.35 33.11"/><circle transform="rotate(-70.761 362.006 479.345)" style="fill:#393d49" cx="361.989" cy="479.32" r="6.804"/><circle transform="rotate(-42.524 437.986 471.423)" style="fill:#393d49" cx="438.003" cy="471.436" r="6.804"/><circle transform="rotate(-79.029 384.772 562.417)" style="fill:#393d49" cx="384.743" cy="562.397" r="6.804"/><circle transform="rotate(-42.524 465.058 554.664)" style="fill:#393d49" cx="465.076" cy="554.679" r="6.804"/><path style="fill:#393d49" d="m329.313 405.083 1.372 1.91c.876 1.23 2.096 2.982 3.542 5.094 2.898 4.216 6.666 9.86 10.72 15.262 4.033 5.418 8.476 10.494 12.191 13.888a54 54 0 0 0 4.662 3.878c.582.444 1.06.762 1.381.987l.494.342-.889 1.397-.526-.332c-.342-.218-.853-.527-1.474-.96a57 57 0 0 1-4.986-3.796c-3.976-3.329-8.748-8.335-13.076-13.656-4.351-5.306-8.386-10.822-11.449-14.891a360 360 0 0 0-3.714-4.88l-1.438-1.831z"/><path style="fill:none;stroke:#393d49;stroke-width:6;stroke-miterlimit:10" d="M517.936 652.784c-10.148 15.417-47.478 22.702-47.478 22.702"/><path style="fill:#393d49" d="m220.559 426.546.665-.279c.206-.089.681-.248 1.121-.392.477-.158.883-.225 1.415-.356 1.014-.184 2.23-.364 3.575-.4a33 33 0 0 1 4.44.126c3.197.275 6.813.994 10.532 2.148 1.865.561 3.745 1.262 5.623 2.031s3.733 1.661 5.557 2.596c1.809.965 3.592 1.97 5.28 3.06 1.704 1.064 3.313 2.21 4.84 3.348a76.5 76.5 0 0 1 7.85 6.781c1.097 1.043 2.019 2.083 2.871 2.964l2.095 2.387 1.752 2.135-1.941-1.96-2.297-2.17c-.927-.794-1.93-1.732-3.107-2.659a75 75 0 0 0-8.293-5.91c-1.587-.966-3.246-1.928-4.983-2.799-1.723-.897-3.524-1.7-5.334-2.459-1.824-.729-3.662-1.41-5.502-1.969-1.839-.558-3.661-1.05-5.442-1.408-3.553-.748-6.917-1.086-9.728-1.061a27 27 0 0 0-3.76.244c-1.096.131-1.977.363-2.675.553-.309.116-.672.213-.832.298-.196.099-.279.105-.496.222l-.636.34zm263.344-11.356-.236.262c-.171.209-.429.541-.742 1.012-.624.938-1.452 2.413-2.167 4.35a25 25 0 0 0-.963 3.222c-.283 1.171-.485 2.439-.63 3.766-.047.666-.131 1.344-.155 2.036l-.034 2.108c.066 1.421.112 2.879.325 4.329.151 1.435.414 2.99.612 4.451.195 1.499.382 2.969.523 4.392.145 1.423.27 2.8.349 4.109.091 1.307.144 2.545.167 3.688.054 2.285-.015 4.189-.126 5.514-.109 1.327-.267 2.07-.267 2.07s.065-.756.009-2.076c-.053-1.319-.218-3.197-.55-5.43a73 73 0 0 0-.613-3.591c-.237-1.27-.526-2.602-.841-3.975a145 145 0 0 0-1.04-4.205c-.386-1.457-.806-2.849-1.171-4.393-.416-1.51-.665-3.064-.925-4.6l-.251-2.309c-.068-.765-.074-1.528-.111-2.278-.024-1.502.026-2.968.182-4.357.14-1.39.369-2.706.656-3.911.563-2.416 1.35-4.385 2.027-5.746a19 19 0 0 1 .884-1.591l.413-.609zM311.728 534.791l.359-.297a.05.05 0 0 1 .023-.027l.023-.009.068-.084c.1-.115.22-.262.355-.471.547-.792 1.27-2.305 1.911-4.255 1.316-3.909 2.363-9.559 2.794-15.274.469-5.721.352-11.515.042-15.846a121 121 0 0 0-.476-5.234l-.239-1.983.451 1.947c.276 1.242.656 3.021 1.039 5.174.778 4.302 1.529 10.115 1.682 16.004.185 5.887-.239 11.825-1.223 16.32-.487 2.251-1.106 4.14-1.84 5.543-.174.347-.37.67-.56.954l-.137.207-.19.24-.346.405-.403.414z"/><path style="fill:#393d49" d="M358.297 575.053c-14.711-.753-38.681-23.901-44.902-38.399l19.492 34.6s40.121 4.552 25.41 3.799m8.215-249.097c.173-.325-.299-.629-.491-.306-1.567 2.641-4.186 4.423-6.448 6.427-1.592 1.411-3.22 2.799-4.737 4.296a10.6 10.6 0 0 0-2.029 2.175c-.031.037-.066.07-.096.107-2.329 2.82-5.176 7.432-3.025 11.059.174.294.543.436.859.266 2.642-1.418 5.197-3.215 7.699-4.871 2.242-1.484 4.811-1.912 7.097-3.381.765-.491.106-1.755-.663-1.258-2.12 1.372-4.465 1.843-6.597 3.109.273-.355.54-.715.79-1.091.372-.559.363-1.301.068-1.887l-.017-.061a1.8 1.8 0 0 0-.359-1.139 86 86 0 0 1 3.085-2.992c.561-.513.61-1.158.373-1.691.185-.14.37-.283.556-.421.926-.69-.31-1.992-1.23-1.31q-.399.296-.794.592a.92.92 0 0 0-.574-.581c2.497-2.108 5.065-4.287 6.533-7.042m42.28 8.618c-1.717-2.21-3.934-3.98-6.256-5.55-1.825-1.235-3.734-2.782-5.95-3.169-1.448-.253-2.149 1.953-.684 2.209 1.615.282 2.724 1.376 4.085 2.212.848.902 1.641 1.853 2.42 2.818a1 1 0 0 0-.107.211c-.012.035-.01.079-.02.116q-.165.051-.336.14a1.08 1.08 0 0 0-.574.906c-.037 1.015.427 1.737 1.201 2.223.045.112.081.228.138.334.114.209.256.379.412.522.004.393.028.821.09 1.25-.814-.811-2.42.141-1.749 1.256 2.307 3.829 7.631 5.417 9.701 9.292.476.89 2.049.645 2.016-.452-.064-2.193.322-8.258-4.387-14.318m-44.882-42.177c-.003-.018-.007-.251-.093-.726-.052-.232-.101-.521-.204-.841a9 9 0 0 0-.38-1.065 10 10 0 0 0-.611-1.197l-.396-.622c-.146-.205-.316-.399-.477-.606-.306-.431-.736-.771-1.117-1.174-.441-.333-.862-.717-1.348-1.009-.493-.277-.955-.621-1.481-.822-.517-.217-1.004-.492-1.526-.628-.513-.156-1.003-.339-1.482-.457l-1.365-.284c-.844-.196-1.572-.201-2.072-.279l-.791-.087.794.044c.503.051 1.235.017 2.093.168l1.392.212c.491.093.996.251 1.528.382.539.111 1.052.362 1.595.558.552.179 1.049.505 1.577.767.521.277.985.652 1.467.98.425.4.9.741 1.251 1.179.184.211.377.409.544.621l.462.644c.29.425.529.854.73 1.258.197.407.361.788.477 1.139.131.345.205.661.276.919.125.516.155.863.154.844zm29.328 1.031.054-.227a9 9 0 0 1 .19-.644c.187-.534.464-1.292.938-2.128.211-.431.52-.853.811-1.316.344-.427.662-.912 1.09-1.331.207-.215.404-.445.627-.655l.701-.608c.457-.425 1.018-.735 1.525-1.109.552-.303 1.102-.614 1.661-.876.579-.219 1.134-.468 1.693-.645l1.631-.436c.526-.101 1.029-.163 1.489-.238.46-.079.883-.134 1.263-.136l.978-.047.851-.041-.848.084-.972.096a8 8 0 0 0-1.247.199c-.453.097-.947.183-1.46.309l-1.582.509c-.538.201-1.069.473-1.62.713-.53.282-1.047.61-1.564.928-.47.387-.992.707-1.408 1.137l-.639.613c-.201.21-.378.44-.564.652-.385.416-.661.893-.966 1.309-.251.452-.522.86-.699 1.275a12 12 0 0 0-.772 2.018c-.14.504-.172.763-.177.779z"/><path style="fill:#393d49" d="m397.77 322.807.645 1.583c.226.491.471 1.091.821 1.748.163.333.344.683.565 1.032q.306.54.697 1.085c.498.743 1.137 1.463 1.876 2.144.731.691 1.597 1.315 2.559 1.891.949.595 1.982 1.157 3.056 1.721l1.619.874.837.465.802.48a13.3 13.3 0 0 1 3.01 2.586c.869.986 1.56 2.112 2.017 3.285.959 2.339.958 4.794.436 6.684-.501 1.915-1.496 3.28-2.306 4.039-.4.392-.764.637-1.01.797l-.387.23.311-.32a9 9 0 0 0 .759-.981c.586-.876 1.228-2.261 1.441-4.003.093-.868.122-1.813-.03-2.788-.161-.97-.421-1.977-.885-2.935a11.4 11.4 0 0 0-1.815-2.714c-.744-.824-1.661-1.579-2.575-2.204l-.779-.489-.773-.446-1.589-.922c-1.051-.624-2.095-1.262-3.077-1.95-.975-.696-1.877-1.473-2.624-2.31a12.2 12.2 0 0 1-1.785-2.576 9 9 0 0 1-.579-1.248 11 11 0 0 1-.422-1.155c-.262-.722-.378-1.39-.519-1.916a42 42 0 0 1-.296-1.687m-36.122 13.603s-.585.901-1.321 2.212l-.575 1.059c-.198.375-.378.784-.587 1.188-.185.418-.384.843-.55 1.288a15 15 0 0 0-.5 1.344c-.184.445-.28.917-.426 1.367-.144.452-.225.912-.339 1.353-.11.442-.154.881-.244 1.296-.089.416-.118.816-.171 1.189-.031.372-.123.721-.133 1.03-.016.308-.049.583-.073.811-.052.456-.1.728-.1.728s-.118-.237-.294-.67c-.085-.217-.194-.482-.295-.793-.121-.309-.174-.67-.254-1.065-.074-.396-.177-.83-.173-1.293-.008-.462-.078-.961-.01-1.465.067-.503.055-1.043.196-1.562.117-.524.228-1.061.423-1.572l.281-.768c.107-.249.233-.49.347-.732.215-.492.529-.922.788-1.357.277-.425.586-.808.887-1.16s.605-.666.909-.933a8.8 8.8 0 0 1 1.553-1.164 5 5 0 0 1 .661-.331"/><path style="fill:none;stroke:#393d49;stroke-width:6;stroke-linecap:round;stroke-miterlimit:10" d="M311.738 239.546S306.001 166 300.097 112.621c0 0 12.754-31.992 72.34-32.32 54.762-.302 64.811 27.695 64.811 27.695l-.173 124.813"/><path style="fill:#393d49" d="m323.882 221.17-.622-8.87c-.409-5.641-1.069-13.688-1.917-23.337l-1.415-15.578c-.507-5.529-1.064-11.358-1.554-17.402-.491-6.044-1.044-12.292-1.338-18.685-.153-3.197-.273-6.427-.257-9.707.01-1.641.054-3.294.192-4.984.072-.846.166-1.701.322-2.585.167-.89.348-1.787.856-2.846.269-.515.617-1.159 1.471-1.73q.168-.102.346-.191l.191-.081c.106-.037.036-.024.287-.099l.181-.046c.162-.035.359-.066.498-.073a3.3 3.3 0 0 1 1.483.254c.834.363 1.286.838 1.672 1.259.379.431.656.848.91 1.261.974 1.644 1.55 3.231 2.099 4.827 1.057 3.184 1.805 6.356 2.473 9.512 1.316 6.312 2.154 12.56 2.883 18.606s1.193 11.91 1.575 17.468c.39 5.558.602 10.82.749 15.676.297 9.712.206 17.807.07 23.467-.057 2.83-.167 5.053-.224 6.568l-.102 2.323-.458-8.88a927 927 0 0 0-1.552-23.354 785 785 0 0 0-1.43-15.549c-.564-5.509-1.284-11.301-2.098-17.273-.829-5.968-1.861-12.112-3.181-18.249-.669-3.06-1.424-6.134-2.418-9.055-.498-1.442-1.071-2.893-1.76-4.022a5 5 0 0 0-.505-.7c-.149-.176-.307-.265-.223-.216.04.019.164.054.301.044a1 1 0 0 0 .198-.035c.019-.008-.079.021-.112.029l.146-.044.051-.024a.4.4 0 0 0 .081-.044c.175-.124.056-.069-.027.136-.195.399-.379 1.095-.506 1.789-.13.706-.221 1.457-.291 2.218-.136 1.527-.191 3.1-.212 4.677-.038 3.157.055 6.339.183 9.496.288 6.317.622 12.561 1.001 18.602.389 6.041.723 11.891 1.021 17.44.317 5.548.553 10.8.728 15.651.381 9.699.453 17.794.411 23.456-.008 2.831-.079 5.056-.113 6.572zm28-9-.61-8.862c-.395-5.637-1.022-13.68-1.799-23.327l-1.281-15.578c-.453-5.529-.946-11.36-1.363-17.405s-.889-12.294-1.093-18.686c-.108-3.196-.18-6.425-.116-9.701.034-1.639.102-3.29.263-4.974.084-.844.19-1.695.354-2.573.177-.885.368-1.776.859-2.808.266-.51.576-1.11 1.358-1.697a3.2 3.2 0 0 1 2.983-.413c.893.343 1.384.846 1.771 1.272.387.441.667.867.915 1.285.959 1.666 1.504 3.26 2.026 4.864 1.001 3.199 1.694 6.378 2.311 9.541 1.214 6.323 1.961 12.574 2.614 18.621s1.052 11.908 1.381 17.463c.337 5.554.509 10.811.623 15.662a467 467 0 0 1-.031 23.441c-.063 2.827-.174 5.048-.232 6.561l-.103 2.321-.45-8.872c-.296-5.643-.75-13.697-1.453-23.341a912 912 0 0 0-1.305-15.549c-.512-5.51-1.168-11.306-1.907-17.283-.753-5.974-1.698-12.127-2.918-18.281-.62-3.068-1.322-6.153-2.264-9.087-.473-1.447-1.021-2.909-1.689-4.034a4.5 4.5 0 0 0-.486-.683c-.142-.175-.279-.222-.146-.162.087.023.168.062.401.026a.9.9 0 0 0 .284-.121c.124-.108-.005.001-.094.21-.204.428-.391 1.123-.529 1.816a26 26 0 0 0-.32 2.217 63 63 0 0 0-.28 4.671c-.085 3.153-.038 6.332.045 9.487.199 6.313.449 12.553.755 18.591l.83 17.43c.262 5.544.454 10.792.593 15.638.309 9.69.349 17.775.293 23.431-.015 2.828-.088 5.051-.123 6.565zm30.111-3.994-.63-9.033-1.768-23.786-1.202-15.89c-.426-5.64-.859-11.591-1.218-17.759-.367-6.168-.745-12.547-.839-19.073-.05-3.264-.056-6.561.121-9.918.097-1.682.23-3.373.535-5.132.164-.884.345-1.779.739-2.767.203-.494.447-1.025.932-1.615.252-.293.583-.61 1.054-.864a3.2 3.2 0 0 1 .642-.258l.075-.02.17-.038a3 3 0 0 1 .281-.042c.194-.021.307-.014.464-.012a3.25 3.25 0 0 1 1.491.461c.382.229.655.476.889.714.461.479.75.93 1.013 1.369.51.877.855 1.713 1.172 2.547.618 1.663 1.066 3.301 1.471 4.938.797 3.271 1.384 6.523 1.903 9.755 1.004 6.465 1.658 12.839 2.213 19.008.564 6.168.884 12.143 1.173 17.804.291 5.661.422 11.019.522 15.962.189 9.887.075 18.125-.066 23.888-.06 2.882-.166 5.145-.22 6.688l-.096 2.365-.456-9.043c-.295-5.752-.741-13.964-1.401-23.801-.327-4.919-.751-10.241-1.203-15.866-.456-5.625-1.063-11.543-1.709-17.654-.666-6.108-1.484-12.406-2.548-18.731-.529-3.16-1.128-6.334-1.905-9.428-.392-1.541-.828-3.072-1.366-4.488-.269-.7-.569-1.384-.893-1.926-.157-.265-.331-.504-.445-.614-.12-.14-.135-.025.261.027.055.006.064.002.156-.004a1 1 0 0 0 .148-.029l-.074.02c-.069.019.214-.063.125-.037.034-.011.069-.033.093-.041.108-.059.129-.095.114-.076a2.3 2.3 0 0 0-.269.529c-.211.543-.39 1.263-.524 1.993-.27 1.478-.413 3.066-.515 4.654-.193 3.188-.212 6.425-.186 9.637.085 6.43.284 12.79.518 18.945l.69 17.767c.223 5.652.398 11 .511 15.939.273 9.876.299 18.115.244 23.88-.016 2.882-.085 5.148-.12 6.691-.045 1.541-.067 2.364-.067 2.364m26.266 6.88-1.057-33.106c-.156-4.965-.302-10.345-.413-16.037-.133-5.693-.242-11.698-.252-17.918-.018-6.221-.02-12.654.285-19.217.151-3.283.347-6.596.74-9.957.204-1.684.445-3.373.865-5.121.222-.878.465-1.765.926-2.733.24-.483.517-1.003 1.063-1.568a3.5 3.5 0 0 1 1.148-.79l.196-.074c-.048.007.299-.091.28-.082l.076-.017.168-.032c.42-.063.689-.045.985.002 1.21.238 1.801.911 2.21 1.377.406.5.667.966.899 1.419.448.902.748 1.758 1.016 2.609.526 1.699.891 3.366 1.215 5.029.633 3.324 1.066 6.619 1.435 9.89.703 6.542 1.073 12.977 1.362 19.201.298 6.224.368 12.243.428 17.945.061 5.703-.019 11.094-.108 16.067a602 602 0 0 1-.941 24.018c-.16 2.896-.344 5.168-.45 6.718l-.176 2.376-.146-9.111c-.094-5.795-.245-14.071-.528-23.99-.137-4.96-.353-10.329-.576-16.005-.227-5.676-.588-11.653-.97-17.827-.403-6.172-.94-12.541-1.711-18.954-.382-3.204-.83-6.424-1.454-9.577-.316-1.571-.675-3.134-1.139-4.593-.231-.724-.495-1.43-.79-2.009a4 4 0 0 0-.423-.677c-.114-.16-.184-.079.197.016.093.008.152.029.367-.009.07-.017.053-.015.016-.006l-.076.018c-.071.017.229-.059.132-.035l.05-.02c.125-.054.155-.094.142-.077-.032.029-.18.235-.297.495-.247.531-.473 1.24-.656 1.964-.366 1.467-.611 3.053-.813 4.641-.396 3.188-.616 6.438-.787 9.665-.308 6.461-.482 12.86-.597 19.055l-.275 17.883a1391 1391 0 0 1-.28 16.039 884 884 0 0 1-.778 24.013c-.125 2.897-.275 5.173-.363 6.724zm-100.613-11.242 1.639-.675a71 71 0 0 1 3.638-1.333c2.647-.894 5.296-1.604 5.296-1.604s-1.889 2.005-3.611 4.086a66 66 0 0 0-2.274 2.892l-.974 1.346zm-1.954-18.475.499-.215.676-.297c.283-.13.557-.223.866-.336 1.229-.446 2.811-.86 4.366-1.227 1.554-.364 3.086-.693 4.226-.98 1.14-.28 1.894-.521 1.894-.521s-.557.561-1.456 1.351c-.895.793-2.123 1.809-3.31 2.828-1.184 1.019-2.316 2.05-3.031 2.839-.177.196-.352.38-.451.522l-.314.4-.343.421zm-5.392-60.667 1.638-.675a70 70 0 0 1 3.638-1.332c2.647-.894 5.296-1.604 5.296-1.604s-1.889 2.006-3.611 4.086a66 66 0 0 0-2.274 2.892l-.974 1.346z"/><path style="fill:#393d49" d="m300.3 130.641 1.638-.675a70 70 0 0 1 3.638-1.332c2.647-.894 5.296-1.604 5.296-1.604s-1.889 2.006-3.611 4.086a66 66 0 0 0-2.274 2.892l-.974 1.347zm4.36 66.636 2.19-1.093c1.313-.634 3.06-1.443 4.814-2.228a173 173 0 0 1 4.849-2.086c1.331-.547 2.23-.87 2.23-.87s-.705.643-1.712 1.651a175 175 0 0 0-3.632 3.752 188 188 0 0 0-3.51 3.83l-1.52 1.76z"/><path style="fill:#fff" d="M164.285 460c0-16.273 1.649-32.16 4.789-47.505-134.965 158.323-22.428 343.079 222.107 343.079s400.39-174.472 239.746-343.079A236.8 236.8 0 0 1 635.716 460c0 130.182-105.533 235.715-235.715 235.715S164.285 590.182 164.285 460"/><path style="fill:none;stroke:#393d49;stroke-width:6;stroke-miterlimit:10" d="M630.926 412.495A236.8 236.8 0 0 1 635.715 460c0 130.182-105.533 235.715-235.715 235.715S164.285 590.182 164.285 460c0-16.273 1.649-32.16 4.789-47.505"/></svg>